<svg width="15" height="15" viewBox="0 0 15 15" fill="none" xmlns="http://www.w3.org/2000/svg">
<path d="M11.505 2.595C11.327 2.595 11.153 2.64778 11.005 2.74668C10.857 2.84557 10.7416 2.98613 10.6735 3.15058C10.6054 3.31504 10.5876 3.496 10.6223 3.67058C10.657 3.84516 10.7427 4.00553 10.8686 4.1314C10.9945 4.25726 11.1548 4.34298 11.3294 4.37771C11.504 4.41243 11.685 4.39461 11.8494 4.32649C12.0139 4.25837 12.1544 4.14302 12.2533 3.99501C12.3522 3.84701 12.405 3.673 12.405 3.495C12.405 3.2563 12.3102 3.02739 12.1414 2.8586C11.9726 2.68982 11.7437 2.595 11.505 2.595ZM14.955 4.41C14.9404 3.78772 14.8239 3.17205 14.61 2.5875C14.4193 2.08735 14.1225 1.63446 13.74 1.26C13.3686 0.875569 12.9147 0.580632 12.4125 0.3975C11.8295 0.177121 11.2131 0.0579075 10.59 0.045C9.795 -4.19095e-08 9.54 0 7.5 0C5.46 0 5.205 -4.19095e-08 4.41 0.045C3.78686 0.0579075 3.17051 0.177121 2.5875 0.3975C2.08626 0.582486 1.6327 0.87717 1.26 1.26C0.875569 1.63138 0.580632 2.08533 0.3975 2.5875C0.177121 3.17051 0.0579075 3.78686 0.045 4.41C-4.19095e-08 5.205 0 5.46 0 7.5C0 9.54 -4.19095e-08 9.795 0.045 10.59C0.0579075 11.2131 0.177121 11.8295 0.3975 12.4125C0.580632 12.9147 0.875569 13.3686 1.26 13.74C1.6327 14.1228 2.08626 14.4175 2.5875 14.6025C3.17051 14.8229 3.78686 14.9421 4.41 14.955C5.205 15 5.46 15 7.5 15C9.54 15 9.795 15 10.59 14.955C11.2131 14.9421 11.8295 14.8229 12.4125 14.6025C12.9147 14.4194 13.3686 14.1244 13.74 13.74C14.1242 13.3669 14.4213 12.9136 14.61 12.4125C14.8239 11.8279 14.9404 11.2123 14.955 10.59C14.955 9.795 15 9.54 15 7.5C15 5.46 15 5.205 14.955 4.41ZM13.605 10.5C13.5995 10.9761 13.5133 11.4478 13.35 11.895C13.2302 12.2214 13.0379 12.5163 12.7875 12.7575C12.5442 13.0054 12.2499 13.1973 11.925 13.32C11.4778 13.4833 11.0061 13.5695 10.53 13.575C9.78 13.6125 9.5025 13.62 7.53 13.62C5.5575 13.62 5.28 13.62 4.53 13.575C4.03567 13.5843 3.54345 13.5081 3.075 13.35C2.76434 13.2211 2.48352 13.0296 2.25 12.7875C2.00107 12.5466 1.81113 12.2514 1.695 11.925C1.51189 11.4714 1.41033 10.989 1.395 10.5C1.395 9.75 1.35 9.4725 1.35 7.5C1.35 5.5275 1.35 5.25 1.395 4.5C1.39836 4.01329 1.48721 3.53096 1.6575 3.075C1.78954 2.75843 1.9922 2.47624 2.25 2.25C2.47786 1.99213 2.75947 1.78732 3.075 1.65C3.53216 1.48503 4.014 1.39881 4.5 1.395C5.25 1.395 5.5275 1.35 7.5 1.35C9.4725 1.35 9.75 1.35 10.5 1.395C10.9761 1.40046 11.4478 1.48668 11.895 1.65C12.2358 1.77649 12.5417 1.98214 12.7875 2.25C13.0333 2.48038 13.2253 2.76205 13.35 3.075C13.5167 3.5317 13.603 4.01383 13.605 4.5C13.6425 5.25 13.65 5.5275 13.65 7.5C13.65 9.4725 13.6425 9.75 13.605 10.5ZM7.5 3.6525C6.73936 3.65398 5.99622 3.88089 5.36449 4.30456C4.73276 4.72823 4.24078 5.32965 3.95073 6.03281C3.66067 6.73598 3.58554 7.50935 3.73485 8.2552C3.88415 9.00104 4.25118 9.6859 4.78956 10.2232C5.32794 10.7606 6.01351 11.1263 6.75964 11.2741C7.50578 11.422 8.279 11.3453 8.9816 11.0539C9.6842 10.7625 10.2847 10.2693 10.7071 9.63678C11.1295 9.00422 11.355 8.26064 11.355 7.5C11.356 6.99383 11.2569 6.49246 11.0634 6.02472C10.87 5.55698 10.5859 5.13211 10.2277 4.77454C9.86939 4.41697 9.44396 4.13376 8.97585 3.9412C8.50773 3.74864 8.00617 3.65052 7.5 3.6525ZM7.5 9.9975C7.00604 9.9975 6.52318 9.85102 6.11246 9.5766C5.70175 9.30217 5.38164 8.91211 5.19261 8.45575C5.00358 7.99939 4.95412 7.49723 5.05049 7.01276C5.14686 6.52829 5.38472 6.08328 5.734 5.734C6.08328 5.38472 6.52829 5.14686 7.01276 5.05049C7.49723 4.95412 7.99939 5.00358 8.45575 5.19261C8.91211 5.38164 9.30217 5.70175 9.5766 6.11246C9.85102 6.52318 9.9975 7.00604 9.9975 7.5C9.9975 7.82798 9.9329 8.15274 9.80739 8.45575C9.68188 8.75876 9.49791 9.03409 9.266 9.266C9.03409 9.49791 8.75876 9.68188 8.45575 9.80739C8.15274 9.9329 7.82798 9.9975 7.5 9.9975Z" fill="white"/>
</svg>
