<svg width="530" height="79" viewBox="0 0 530 79" fill="none" xmlns="http://www.w3.org/2000/svg">
<path d="M306.455 0.493442H317.891V66.1804H352.24V75.99H306.455V0.493442Z" fill="#010101"/>
<path d="M378.889 75.9801L406.162 0.493442H419.372L446.655 75.9801H434.515L427.597 56.0056H397.986L391.029 75.9801H378.889ZM424.268 46.4131L413.089 14.2012H412.494L401.315 46.4131H424.268Z" fill="#010101"/>
<path d="M503.133 0.493442C519.267 0.493442 527.047 9.15828 527.047 20.3199C527.047 29.7545 521.239 34.4718 514.272 36.2482V36.9884C521.784 37.393 530 43.9953 530 55.6799C530 67.3646 522.042 75.99 504.422 75.99H475.365V0.493442H503.133ZM502.132 33.1494C509.833 33.1494 515.828 28.5012 515.828 21.2081C515.828 14.9414 511.498 10.1846 502.43 10.1846H486.811V33.1494H502.132ZM503.322 66.21C514.312 66.21 518.643 61.4532 518.643 55.1174C518.643 47.9329 512.905 42.0314 503.728 42.0314H486.811V66.21H503.322Z" fill="#010101"/>
<path d="M14.1717 7.93454C21.307 2.46721 29.7902 0 40.1365 0C64.3373 0 80.9965 16.175 80.9965 40.0675C80.9965 62.7263 64.2382 79 40.969 79C31.6632 79 21.2178 75.9111 14.3897 71.0655C5.48037 64.8876 0 52.6305 0 38.9325C0 25.2346 4.5488 15.346 14.1717 7.93454ZM10.2373 40.5806C10.2373 51.9101 14.0626 60.4663 20.5836 66.7429C26.3811 72.3089 33.9228 75.4966 41.3753 75.4966C49.4422 75.4966 57.9254 71.4799 62.5832 65.4007C67.7564 58.7097 71.0664 48.1994 71.0664 38.1036C71.0664 18.9482 56.8947 3.70081 39.1058 3.70081C21.3169 3.70081 10.2373 17.0928 10.2373 38.518V40.5806Z" fill="#010101"/>
<path d="M271.452 65.608C271.452 65.529 271.442 65.4501 271.422 65.3711C271.422 65.3119 271.402 65.2626 271.382 65.2132C271.194 64.6507 270.698 64.3941 270.698 64.3941C269.509 63.6737 268.578 64.7395 268.578 64.7395L267.557 65.6771C266.526 66.6047 265.862 67.1771 265.773 67.266C264.425 68.1936 262.879 69.0127 261.432 69.5358C256.566 71.2826 251.403 71.9043 241.364 71.9043C240.641 71.9043 225.746 71.7958 223.575 71.7958H222.951C219.225 71.7958 217.262 70.7694 217.262 69.1213C217.262 68.0949 217.57 67.7791 219.75 64.4829L222.961 59.6373L253.99 18.8495L260.917 10.1945L265.367 5.15153L266.298 4.22386C266.744 3.67121 267.269 3.07908 267.329 2.33891C267.349 2.10206 267.309 1.85534 267.17 1.6777C267.022 1.49019 266.784 1.40137 266.546 1.3619C266.229 1.32242 265.902 1.34216 265.575 1.34216H264.019C262.879 1.34216 260.709 1.34216 257.498 1.44085C251.809 1.53954 244.882 1.53954 236.706 1.53954L210.741 1.44085H206.292C205.41 1.44085 204.528 1.32242 203.646 1.33229C203.497 1.33229 203.348 1.33229 203.22 1.39151C203.011 1.48032 202.863 1.6777 202.783 1.88495C202.625 2.31918 202.625 2.86196 202.565 3.3258C202.506 3.82911 202.456 4.34229 202.387 4.8456C202.159 6.5233 201.872 8.19113 201.594 9.85896C201.406 10.9643 201.218 12.0597 201.01 13.1552C200.861 13.9841 200.544 15.0598 201.019 15.8395C201.307 16.3033 201.822 16.5698 202.367 16.5698C203.299 16.5698 203.913 16.0566 204.538 14.5072C207.639 7.08582 216.43 4.92455 245.606 4.92455C251.086 4.92455 251.909 5.13179 251.909 6.26671C251.909 6.98713 251.393 8.12205 250.254 9.66159L244.981 16.7671L213.229 58.1768C207.749 65.2823 205.677 67.9666 202.575 71.4602C201.951 72.0819 201.337 72.6938 200.821 73.1083C199.89 73.8287 199.682 74.3419 199.682 74.8551C199.682 75.8814 199.989 75.99 201.852 75.99H261.224C264.435 75.99 265.367 75.6841 266.913 73.8287C267.537 73.1083 268.26 72.0819 268.875 71.0457C270.074 69.22 270.946 67.5324 271.293 66.4172C271.293 66.4172 271.303 66.4172 271.303 66.3975C271.432 66.0817 271.471 65.8152 271.462 65.5883L271.452 65.608Z" fill="#010101"/>
<path d="M173.281 13.8756C173.043 12.5828 172.944 11.7933 172.428 8.28982L171.497 1.69744C171.289 0.463835 171.081 0.25659 170.357 0.25659C170.248 0.25659 169.842 0.25659 169.426 0.355278C164.768 1.0757 157.741 1.49019 148.119 1.49019C146.919 1.49019 145.661 1.49019 144.402 1.47046H131.281C130.022 1.47046 128.774 1.49019 127.565 1.49019C117.942 1.49019 110.915 1.0757 106.258 0.355278C105.841 0.25659 105.435 0.25659 105.326 0.25659C104.603 0.25659 104.395 0.463835 104.186 1.69744L103.255 8.28982C102.74 11.7933 102.64 12.5828 102.403 13.8756C102.244 14.6453 102.224 15.0894 102.224 15.3954C102.224 16.2244 102.948 16.9448 103.572 16.9448C104.712 16.9448 105.128 16.5303 105.742 14.675C107.09 11.0728 111.946 7.25359 116.703 6.64172C120.221 6.12854 124.77 5.9213 128.288 5.9213C132.837 5.9213 133.045 6.12854 133.253 8.49706C133.541 11.7933 133.59 15.0796 133.63 18.3955C133.64 19.3232 133.65 20.2508 133.669 21.1686L133.461 59.3808L133.352 65.5586C133.253 70.7102 131.281 72.5655 126.524 72.5655H126.009C124.255 72.5655 123.63 73.0787 123.63 74.2136C123.63 74.9636 124.066 75.5755 124.8 75.7729C125.216 75.8913 125.662 75.8716 126.088 75.8617C127.267 75.8222 128.447 75.7729 129.626 75.763C130.766 75.763 131.905 75.763 133.045 75.763H142.628C143.768 75.763 144.908 75.763 146.047 75.763C147.227 75.763 148.406 75.8222 149.585 75.8617C150.021 75.8716 150.457 75.8913 150.874 75.7729C151.607 75.5755 152.043 74.9636 152.043 74.2136C152.043 73.0787 151.419 72.5655 149.665 72.5655H149.149C144.392 72.5655 142.43 70.7102 142.321 65.5586L142.212 59.3808L142.004 21.1686C142.014 20.241 142.024 19.3133 142.044 18.3955C142.083 15.0894 142.133 11.8031 142.42 8.49706C142.628 6.12854 142.836 5.9213 147.385 5.9213C150.903 5.9213 155.452 6.12854 158.97 6.64172C163.727 7.26346 168.583 11.0728 169.931 14.675C170.555 16.5303 170.962 16.9448 172.101 16.9448C172.726 16.9448 173.449 16.2244 173.449 15.3954C173.449 15.0894 173.429 14.6453 173.271 13.8756H173.281Z" fill="#010101"/>
</svg>
