<svg width="30" height="30" viewBox="0 0 30 30" fill="none" xmlns="http://www.w3.org/2000/svg">
<path d="M26.75 15C26.75 8.51065 21.4893 3.25 15 3.25C8.51065 3.25 3.25 8.51065 3.25 15C3.25 21.4893 8.51065 26.75 15 26.75C21.4893 26.75 26.75 21.4893 26.75 15ZM18.75 10.5C19.1642 10.5 19.5 10.8358 19.5 11.25V18.75C19.5 19.1642 19.1642 19.5 18.75 19.5H11.25C10.8358 19.5 10.5 19.1642 10.5 18.75V11.25C10.5 10.8358 10.8358 10.5 11.25 10.5H18.75ZM12 18H18V12H12V18ZM28.25 15C28.25 22.3178 22.3178 28.25 15 28.25C7.68223 28.25 1.75 22.3178 1.75 15C1.75 7.68223 7.68223 1.75 15 1.75C22.3178 1.75 28.25 7.68223 28.25 15Z" fill="white"/>
</svg>
