<svg width="30" height="30" viewBox="0 0 30 30" fill="none" xmlns="http://www.w3.org/2000/svg">
<path d="M26.7471 15.0004C26.7471 11.8847 25.5094 8.89621 23.3066 6.69276C23.014 6.3998 23.0148 5.92499 23.3076 5.63221C23.6006 5.33948 24.0754 5.33931 24.3682 5.63221C26.8521 8.11694 28.2471 11.487 28.2471 15.0004C28.247 18.5136 26.8519 21.8829 24.3682 24.3676C24.0753 24.6605 23.6006 24.6604 23.3076 24.3676C23.0147 24.0748 23.0139 23.6 23.3066 23.307C25.5093 21.1037 26.747 18.1159 26.7471 15.0004ZM13.2812 5.66444C13.5064 5.48433 13.8153 5.44873 14.0752 5.57362C14.335 5.69852 14.5 5.9621 14.5 6.25037V23.7504C14.4999 24.0385 14.3348 24.3013 14.0752 24.4262C13.8153 24.551 13.5064 24.5154 13.2812 24.3353L7.2373 19.5004H2.5C2.08592 19.5004 1.75021 19.1644 1.75 18.7504V11.2504C1.75 10.8362 2.08579 10.5004 2.5 10.5004H7.23633L13.2812 5.66444ZM7.96875 11.8353C7.83577 11.9417 7.6703 12.0004 7.5 12.0004H3.25V18.0004H7.5L7.62598 18.0111C7.75064 18.0324 7.86893 18.0846 7.96875 18.1644L13 22.1889V7.80994L7.96875 11.8353ZM20.5049 14.9935C20.5048 13.5352 19.9256 12.1362 18.8945 11.1049C18.6019 10.8119 18.6017 10.3371 18.8945 10.0443C19.1873 9.75161 19.6622 9.75176 19.9551 10.0443C21.2673 11.357 22.0048 13.1375 22.0049 14.9935C22.0049 16.8497 21.2674 18.6301 19.9551 19.9428C19.6622 20.2355 19.1874 20.2355 18.8945 19.9428C18.6018 19.6499 18.6018 19.1751 18.8945 18.8822C19.9256 17.8508 20.5049 16.4519 20.5049 14.9935Z" fill="white"/>
</svg>
