<svg width="25" height="25" viewBox="0 0 25 25" fill="none" xmlns="http://www.w3.org/2000/svg">
<path d="M20.2083 21.875V19.7917C20.2083 18.8524 19.8349 17.9518 19.1707 17.2876C18.5481 16.665 17.7178 16.2975 16.8424 16.2541L16.6667 16.25H8.33332C7.39402 16.25 6.49345 16.6234 5.82925 17.2876C5.16506 17.9518 4.79166 18.8524 4.79166 19.7917V21.875C4.79166 22.2202 4.51183 22.5 4.16666 22.5C3.82148 22.5 3.54166 22.2202 3.54166 21.875V19.7917C3.54166 18.5208 4.04685 17.3024 4.94547 16.4038C5.84408 15.5052 7.06249 15 8.33332 15H16.6667C17.9375 15 19.1559 15.5052 20.0545 16.4038C20.9531 17.3024 21.4583 18.5208 21.4583 19.7917V21.875C21.4583 22.2202 21.1785 22.5 20.8333 22.5C20.4881 22.5 20.2083 22.2202 20.2083 21.875ZM16.0417 7.29167C16.0417 5.33566 14.456 3.75 12.5 3.75C10.544 3.75 8.95832 5.33566 8.95832 7.29167C8.95832 9.24767 10.544 10.8333 12.5 10.8333C14.456 10.8333 16.0417 9.24767 16.0417 7.29167ZM17.2917 7.29167C17.2917 9.93803 15.1464 12.0833 12.5 12.0833C9.85363 12.0833 7.70832 9.93803 7.70832 7.29167C7.70832 4.6453 9.85363 2.5 12.5 2.5C15.1464 2.5 17.2917 4.6453 17.2917 7.29167Z" fill="black"/>
</svg>
