<svg width="30" height="30" viewBox="0 0 30 30" fill="none" xmlns="http://www.w3.org/2000/svg">
<path d="M13.2812 5.66404C13.5064 5.48394 13.8153 5.44931 14.0752 5.5742C14.3349 5.69915 14.5 5.96179 14.5 6.24998V23.75C14.5 24.0382 14.3349 24.3008 14.0752 24.4258C13.8153 24.5506 13.5064 24.516 13.2812 24.3359L7.23633 19.5H2.5C2.08579 19.5 1.75 19.1642 1.75 18.75V11.25C1.75 10.8358 2.08579 10.5 2.5 10.5H7.23633L13.2812 5.66404ZM7.96875 11.8359C7.83577 11.9423 7.6703 12 7.5 12H3.25V18H7.5C7.6703 18 7.83577 18.0577 7.96875 18.164L13 22.1885V7.81053L7.96875 11.8359ZM28.2197 10.7197C28.5126 10.4268 28.9874 10.4268 29.2803 10.7197C29.5732 11.0126 29.5732 11.4874 29.2803 11.7803L26.0605 15L29.2803 18.2197C29.5732 18.5126 29.5732 18.9874 29.2803 19.2803C28.9874 19.5731 28.5126 19.5731 28.2197 19.2803L25 16.0605L21.7803 19.2803C21.4874 19.5731 21.0126 19.5731 20.7197 19.2803C20.4268 18.9874 20.4268 18.5126 20.7197 18.2197L23.9395 15L20.7197 11.7803C20.4268 11.4874 20.4268 11.0126 20.7197 10.7197C21.0126 10.4268 21.4874 10.4268 21.7803 10.7197L25 13.9394L28.2197 10.7197Z" fill="white"/>
</svg>
