<svg width="25" height="25" viewBox="0 0 25 25" fill="none" xmlns="http://www.w3.org/2000/svg">
<path d="M19.1667 11.4583C19.1667 7.20114 15.7155 3.75 11.4583 3.75C7.20114 3.75 3.75 7.20114 3.75 11.4583C3.75 15.7155 7.20114 19.1667 11.4583 19.1667C15.7155 19.1667 19.1667 15.7155 19.1667 11.4583ZM20.4167 11.4583C20.4167 13.7071 19.5855 15.7601 18.217 17.3332L22.7588 21.875L21.875 22.7588L17.3332 18.217C15.7601 19.5855 13.7071 20.4167 11.4583 20.4167C6.51078 20.4167 2.5 16.4059 2.5 11.4583C2.5 6.51078 6.51078 2.5 11.4583 2.5C16.4059 2.5 20.4167 6.51078 20.4167 11.4583Z" fill="black"/>
</svg>
