<svg width="30" height="30" viewBox="0 0 30 30" fill="none" xmlns="http://www.w3.org/2000/svg">
<path d="M26.75 15C26.75 8.51065 21.4893 3.25 15 3.25C8.51065 3.25 3.25 8.51065 3.25 15C3.25 21.4893 8.51065 26.75 15 26.75C21.4893 26.75 26.75 21.4893 26.75 15ZM12.1465 9.33887C12.3903 9.20849 12.6859 9.2226 12.916 9.37598L20.416 14.376C20.6247 14.5151 20.75 14.7492 20.75 15C20.75 15.2508 20.6247 15.4849 20.416 15.624L12.916 20.624C12.6859 20.7774 12.3903 20.7915 12.1465 20.6611C11.9026 20.5306 11.75 20.2766 11.75 20V10C11.75 9.7234 11.9026 9.46938 12.1465 9.33887ZM13.25 18.5986L18.6475 15L13.25 11.4014V18.5986ZM28.25 15C28.25 22.3178 22.3178 28.25 15 28.25C7.68223 28.25 1.75 22.3178 1.75 15C1.75 7.68223 7.68223 1.75 15 1.75C22.3178 1.75 28.25 7.68223 28.25 15Z" fill="white"/>
</svg>
