<svg width="13" height="15" viewBox="0 0 13 15" fill="none" xmlns="http://www.w3.org/2000/svg">
<path d="M13 6.43055V3.81223C11.7993 3.81223 10.883 3.48494 10.2917 2.8488C9.68477 2.12279 9.34476 1.20339 9.33021 0.248925V0.0599263L6.90625 0V10.6346C6.8231 11.0986 6.60255 11.5254 6.27437 11.8573C5.94619 12.1892 5.52619 12.4103 5.07106 12.4908C4.61593 12.5712 4.14759 12.5071 3.72926 12.3071C3.31094 12.1071 2.96277 11.7809 2.73177 11.3724C2.50076 10.9639 2.39804 10.4929 2.43747 10.0229C2.4769 9.55295 2.65659 9.10664 2.95226 8.74425C3.24794 8.38187 3.64538 8.12085 4.09092 7.99644C4.53646 7.87203 5.00865 7.89022 5.44375 8.04856V5.51321C5.19007 5.47076 4.93346 5.44918 4.67639 5.44868C3.75149 5.44868 2.84736 5.72877 2.07833 6.25352C1.3093 6.77828 0.709916 7.52413 0.355971 8.39677C0.00202612 9.26941 -0.0905818 10.2296 0.0898576 11.156C0.270297 12.0824 0.71568 12.9334 1.36968 13.6012C2.02369 14.2691 2.85694 14.724 3.76407 14.9082C4.6712 15.0925 5.61147 14.9979 6.46597 14.6365C7.32046 14.275 8.05082 13.6629 8.56466 12.8776C9.07851 12.0922 9.35278 11.1689 9.35278 10.2243C9.35228 10.0286 9.34022 9.83313 9.31667 9.6389V5.42102C10.4189 6.12397 11.7013 6.47545 13 6.43055Z" fill="white"/>
</svg>
