<svg width="21" height="15" viewBox="0 0 21 15" fill="none" xmlns="http://www.w3.org/2000/svg">
<path d="M20.9952 5.28647C21.0423 3.8985 20.7437 2.52092 20.1271 1.28163C19.7087 0.77312 19.128 0.429956 18.4863 0.311935C15.832 0.0671111 13.1667 -0.0332339 10.5018 0.0113292C7.84663 -0.0352566 5.19091 0.0618505 2.5459 0.302238C2.02297 0.398933 1.53903 0.648266 1.15314 1.01981C0.294593 1.82466 0.199199 3.20163 0.103804 4.36526C-0.0346014 6.45744 -0.0346014 8.55671 0.103804 10.6489C0.131402 11.3038 0.227334 11.9539 0.389987 12.5883C0.505009 13.078 0.737721 13.5312 1.06729 13.9071C1.4558 14.2983 1.95101 14.5618 2.48866 14.6634C4.54528 14.9215 6.61754 15.0284 8.68929 14.9834C12.0281 15.0319 14.9567 14.9834 18.4195 14.7119C18.9704 14.6165 19.4795 14.3527 19.879 13.9555C20.1461 13.6839 20.3456 13.3515 20.461 12.9858C20.8021 11.9217 20.9697 10.808 20.957 9.68889C20.9952 9.14586 20.9952 5.86829 20.9952 5.28647ZM8.34587 10.2707V4.26829L13.9932 7.28404C12.4097 8.17616 10.3205 9.18465 8.34587 10.2707Z" fill="white"/>
</svg>
